<svg width="500" height="500" viewBox="0 0 500 500" fill="none" xmlns="http://www.w3.org/2000/svg">
<rect width="500" height="500" fill="white"/>
<path d="M229.832 221.445L242.685 213.972C245.699 212.189 246.723 208.28 245.017 205.233C243.197 202.187 239.329 201.094 236.315 202.876L214.135 215.811L229.832 221.445Z" fill="#E84336"/>
<path d="M239.504 240.703C241.665 240.703 243.826 239.553 244.964 237.484C246.727 234.437 245.646 230.528 242.632 228.746L220.451 215.811C217.437 214.086 213.57 215.121 211.864 218.168C210.101 221.215 211.124 225.124 214.139 226.906L236.319 239.841C237.343 240.416 238.423 240.703 239.504 240.703Z" fill="#4282F2"/>
<path d="M261.559 240.703C262.64 240.703 263.72 240.416 264.687 239.841L286.868 226.906L271.398 221.157L258.374 228.746C255.36 230.528 254.336 234.437 256.043 237.484C257.237 239.553 259.341 240.703 261.559 240.703Z" fill="#F9BA08"/>
<path d="M283.745 227.711C285.907 227.711 288.068 226.561 289.205 224.491C290.968 221.445 289.888 217.535 286.873 215.753L264.693 202.819C261.679 201.094 257.811 202.186 256.048 205.233C254.285 208.28 255.366 212.189 258.38 213.971L280.561 226.906C281.584 227.481 282.665 227.711 283.745 227.711Z" fill="#35A653"/>
<path d="M50.5123 265.49C49.1239 264.688 48.0132 263.573 47.2149 262.179C46.4165 260.786 46 259.217 46 257.51C46 255.802 46.4165 254.269 47.2149 252.84C48.0132 251.447 49.1239 250.331 50.5123 249.53C51.9007 248.729 53.428 248.345 55.0593 248.345C56.3436 248.345 57.5585 248.589 58.6692 249.042C59.8146 249.495 60.7171 250.157 61.446 250.994L59.9535 252.492C59.3981 251.795 58.7039 251.272 57.8014 250.924C56.9337 250.541 55.9965 250.366 55.0246 250.366C53.8098 250.366 52.6643 250.68 51.5883 251.272C50.5123 251.865 49.6793 252.701 49.0198 253.781C48.3603 254.862 48.0479 256.116 48.0479 257.545C48.0479 258.939 48.3603 260.193 49.0198 261.308C49.6793 262.389 50.5123 263.26 51.5883 263.852C52.6643 264.445 53.8098 264.758 55.0246 264.758C56.2048 264.758 57.1767 264.584 57.975 264.201C58.7733 263.817 59.4675 263.364 60.0229 262.737C60.4394 262.284 60.7865 261.726 61.0642 261.064C61.3072 260.402 61.4807 259.705 61.5154 258.939H55.0593V256.987H63.4592C63.5286 257.44 63.598 257.858 63.598 258.277C63.598 259.357 63.4245 260.402 63.0774 261.413C62.7303 262.423 62.1749 263.329 61.446 264.096C59.8146 265.838 57.6626 266.71 55.0246 266.71C53.3933 266.71 51.9007 266.291 50.5123 265.49Z" fill="#636D74"/>
<path d="M68.178 265.873C67.2408 265.315 66.5119 264.549 65.9565 263.538C65.4359 262.562 65.1582 261.447 65.1582 260.228C65.1582 259.008 65.4359 257.928 65.9565 256.917C66.4772 255.941 67.2061 255.14 68.178 254.582C69.1152 254.025 70.1912 253.746 71.3713 253.746C72.5515 253.746 73.6275 254.025 74.5646 254.582C75.5018 255.14 76.2654 255.907 76.7861 256.917C77.3067 257.893 77.5844 259.008 77.5844 260.228C77.5844 261.447 77.3067 262.528 76.7861 263.538C76.2654 264.514 75.5018 265.315 74.5646 265.873C73.6275 266.43 72.5515 266.709 71.3713 266.709C70.1912 266.709 69.1152 266.43 68.178 265.873ZM73.4192 264.27C74.044 263.887 74.5646 263.364 74.9465 262.667C75.3283 261.97 75.5365 261.169 75.5365 260.262C75.5365 259.356 75.3283 258.555 74.9465 257.858C74.5646 257.161 74.044 256.638 73.4192 256.255C72.7944 255.872 72.1002 255.698 71.3713 255.698C70.6424 255.698 69.9829 255.872 69.3581 256.255C68.7333 256.638 68.2127 257.161 67.8309 257.858C67.4491 258.555 67.2408 259.356 67.2408 260.262C67.2408 261.169 67.4491 261.97 67.8309 262.667C68.2127 263.364 68.7333 263.887 69.3581 264.27C69.9829 264.653 70.6771 264.827 71.3713 264.827C72.1002 264.827 72.7944 264.618 73.4192 264.27Z" fill="#636D74"/>
<path d="M82.0315 265.873C81.0943 265.315 80.3654 264.549 79.8101 263.538C79.2894 262.562 79.0117 261.447 79.0117 260.228C79.0117 259.008 79.2894 257.928 79.8101 256.917C80.3307 255.941 81.0596 255.14 82.0315 254.582C82.9687 254.025 84.0447 253.746 85.2248 253.746C86.405 253.746 87.481 254.025 88.4182 254.582C89.3553 255.14 90.119 255.907 90.6396 256.917C91.1603 257.893 91.4379 259.008 91.4379 260.228C91.4379 261.447 91.1603 262.528 90.6396 263.538C90.119 264.514 89.3553 265.315 88.4182 265.873C87.481 266.43 86.405 266.709 85.2248 266.709C84.0447 266.709 82.9687 266.43 82.0315 265.873ZM87.2727 264.27C87.8975 263.887 88.4182 263.364 88.8 262.667C89.1818 261.97 89.3901 261.169 89.3901 260.262C89.3901 259.356 89.1818 258.555 88.8 257.858C88.4182 257.161 87.8975 256.638 87.2727 256.255C86.648 255.872 85.9538 255.698 85.2248 255.698C84.4959 255.698 83.8364 255.872 83.2116 256.255C82.5869 256.638 82.0662 257.161 81.6844 257.858C81.3026 258.555 81.0943 259.356 81.0943 260.262C81.0943 261.169 81.3026 261.97 81.6844 262.667C82.0662 263.364 82.5869 263.887 83.2116 264.27C83.8364 264.653 84.5306 264.827 85.2248 264.827C85.9538 264.827 86.6132 264.618 87.2727 264.27Z" fill="#636D74"/>
<path d="M95.2505 270.96C94.3133 270.264 93.6885 269.427 93.3761 268.521L95.3199 267.72C95.5628 268.452 96.0141 269.009 96.6389 269.462C97.2637 269.915 97.9926 270.124 98.8603 270.124C100.145 270.124 101.116 269.741 101.811 269.009C102.505 268.277 102.852 267.197 102.852 265.873V264.583H102.748C102.366 265.211 101.811 265.733 101.047 266.117C100.318 266.535 99.4851 266.744 98.5479 266.744C97.5066 266.744 96.5694 266.465 95.7017 265.908C94.8339 265.35 94.1397 264.583 93.6191 263.608C93.0984 262.632 92.8555 261.517 92.8555 260.297C92.8555 259.078 93.0984 257.963 93.6191 256.987C94.1397 256.011 94.8339 255.244 95.7017 254.687C96.5694 254.129 97.5413 253.851 98.5479 253.851C99.4851 253.851 100.318 254.06 101.047 254.478C101.776 254.896 102.331 255.384 102.748 256.011H102.852V254.234H104.865V265.908C104.865 267.232 104.587 268.382 104.102 269.323C103.581 270.264 102.852 270.96 101.95 271.414C101.047 271.867 100.006 272.11 98.8603 272.11C97.3678 272.006 96.1876 271.657 95.2505 270.96ZM100.873 264.27C101.464 263.887 101.95 263.364 102.331 262.667C102.713 261.97 102.887 261.168 102.887 260.228C102.887 259.287 102.713 258.485 102.331 257.788C101.95 257.091 101.464 256.569 100.873 256.185C100.283 255.837 99.6239 255.628 98.895 255.628C98.1661 255.628 97.5066 255.802 96.9165 256.185C96.3265 256.569 95.8405 257.091 95.4587 257.788C95.0769 258.485 94.9034 259.287 94.9034 260.228C94.9034 261.168 95.0769 261.97 95.4587 262.667C95.8405 263.364 96.2918 263.887 96.9165 264.27C97.5066 264.653 98.1661 264.827 98.895 264.827C99.6239 264.827 100.283 264.653 100.873 264.27Z" fill="#636D74"/>
<path d="M107.332 248.763H109.415V266.291H107.332V248.763Z" fill="#636D74"/>
<path d="M114.316 265.873C113.414 265.315 112.685 264.549 112.164 263.573C111.643 262.597 111.4 261.482 111.4 260.227C111.4 259.043 111.643 257.962 112.129 256.987C112.615 256.011 113.309 255.209 114.212 254.652C115.114 254.06 116.156 253.781 117.336 253.781C118.516 253.781 119.523 254.06 120.425 254.582C121.327 255.105 121.987 255.872 122.473 256.812C122.959 257.788 123.167 258.903 123.167 260.158C123.167 260.402 123.167 260.541 123.132 260.646H113.518C113.552 261.552 113.761 262.318 114.177 262.946C114.594 263.573 115.08 264.061 115.704 264.339C116.329 264.653 116.954 264.792 117.579 264.792C119.106 264.792 120.286 264.026 121.119 262.527L122.959 263.399C122.438 264.374 121.709 265.176 120.807 265.768C119.904 266.361 118.794 266.674 117.509 266.674C116.295 266.709 115.219 266.43 114.316 265.873ZM120.946 258.903C120.911 258.415 120.772 257.928 120.529 257.44C120.286 256.952 119.904 256.534 119.349 256.185C118.794 255.837 118.134 255.663 117.301 255.663C116.364 255.663 115.566 255.941 114.906 256.534C114.247 257.126 113.83 257.893 113.622 258.868H120.946V258.903Z" fill="#636D74"/>
<path d="M131.074 248.763H136.35C138.155 248.763 139.717 249.147 141.036 249.878C142.355 250.61 143.396 251.655 144.125 252.98C144.854 254.304 145.201 255.837 145.201 257.545C145.201 259.252 144.854 260.785 144.125 262.11C143.396 263.434 142.39 264.479 141.036 265.211C139.717 265.943 138.155 266.326 136.35 266.326H131.074V248.763ZM136.35 264.34C138.433 264.34 140.064 263.747 141.279 262.563C142.494 261.378 143.084 259.705 143.084 257.579C143.084 255.454 142.494 253.781 141.279 252.596C140.064 251.412 138.433 250.819 136.35 250.819H133.122V264.375H136.35V264.34Z" fill="#636D74"/>
<path d="M149.914 265.873C149.011 265.315 148.282 264.549 147.762 263.573C147.241 262.597 146.998 261.482 146.998 260.227C146.998 259.043 147.241 257.962 147.727 256.987C148.213 256.011 148.907 255.209 149.81 254.652C150.712 254.06 151.753 253.781 152.933 253.781C154.114 253.781 155.12 254.06 156.023 254.582C156.925 255.105 157.585 255.872 158.071 256.812C158.557 257.788 158.765 258.903 158.765 260.158C158.765 260.402 158.765 260.541 158.73 260.646H149.115C149.15 261.552 149.358 262.318 149.775 262.946C150.191 263.573 150.677 264.061 151.302 264.339C151.927 264.653 152.552 264.792 153.176 264.792C154.704 264.792 155.884 264.026 156.717 262.527L158.557 263.399C158.036 264.374 157.307 265.176 156.404 265.768C155.502 266.361 154.391 266.674 153.107 266.674C151.857 266.709 150.816 266.43 149.914 265.873ZM156.509 258.903C156.474 258.415 156.335 257.928 156.092 257.44C155.849 256.952 155.467 256.534 154.912 256.185C154.357 255.837 153.697 255.663 152.864 255.663C151.927 255.663 151.129 255.941 150.469 256.534C149.81 257.126 149.393 257.893 149.185 258.868H156.509V258.903Z" fill="#636D74"/>
<path d="M159.221 254.165H161.477L165.156 263.852H165.191L168.974 254.165H171.161L166.197 266.326H164.115L159.221 254.165Z" fill="#636D74"/>
<path d="M174.992 265.873C174.089 265.315 173.36 264.549 172.84 263.573C172.319 262.597 172.076 261.482 172.076 260.227C172.076 259.043 172.319 257.962 172.805 256.987C173.291 256.011 173.985 255.209 174.888 254.652C175.79 254.06 176.831 253.781 178.012 253.781C179.192 253.781 180.198 254.06 181.101 254.582C182.003 255.105 182.663 255.872 183.149 256.812C183.635 257.788 183.843 258.903 183.843 260.158C183.843 260.402 183.843 260.541 183.808 260.646H174.193C174.228 261.552 174.436 262.318 174.853 262.946C175.27 263.573 175.755 264.061 176.38 264.339C177.005 264.653 177.63 264.792 178.255 264.792C179.782 264.792 180.962 264.026 181.795 262.527L183.635 263.399C183.114 264.374 182.385 265.176 181.483 265.768C180.58 266.361 179.469 266.674 178.185 266.674C176.936 266.709 175.894 266.43 174.992 265.873ZM181.587 258.903C181.552 258.415 181.413 257.928 181.17 257.44C180.927 256.952 180.545 256.534 179.99 256.185C179.435 255.837 178.775 255.663 177.942 255.663C177.005 255.663 176.207 255.941 175.547 256.534C174.888 257.126 174.471 257.893 174.263 258.868H181.587V258.903Z" fill="#636D74"/>
<path d="M185.879 248.763H187.962V266.291H185.879V248.763Z" fill="#636D74"/>
<path d="M192.924 265.873C191.987 265.315 191.258 264.549 190.703 263.538C190.182 262.562 189.904 261.447 189.904 260.228C189.904 259.008 190.182 257.928 190.703 256.917C191.223 255.941 191.952 255.14 192.924 254.582C193.861 254.025 194.937 253.746 196.117 253.746C197.298 253.746 198.374 254.025 199.311 254.582C200.248 255.14 201.012 255.907 201.532 256.917C202.053 257.893 202.331 259.008 202.331 260.228C202.331 261.447 202.053 262.528 201.532 263.538C201.012 264.514 200.248 265.315 199.311 265.873C198.374 266.43 197.298 266.709 196.117 266.709C194.937 266.709 193.896 266.43 192.924 265.873ZM198.165 264.27C198.79 263.887 199.311 263.364 199.693 262.667C200.074 261.97 200.283 261.169 200.283 260.262C200.283 259.356 200.074 258.555 199.693 257.858C199.311 257.161 198.79 256.638 198.165 256.255C197.541 255.872 196.846 255.698 196.117 255.698C195.389 255.698 194.729 255.872 194.104 256.255C193.479 256.638 192.959 257.161 192.577 257.858C192.195 258.555 191.987 259.356 191.987 260.262C191.987 261.169 192.195 261.97 192.577 262.667C192.959 263.364 193.479 263.887 194.104 264.27C194.729 264.653 195.423 264.827 196.117 264.827C196.881 264.827 197.541 264.618 198.165 264.27Z" fill="#636D74"/>
<path d="M204.238 254.164H206.217V255.941H206.321C206.703 255.314 207.258 254.792 208.022 254.373C208.751 253.955 209.584 253.746 210.556 253.746C211.597 253.746 212.569 254.025 213.436 254.582C214.304 255.14 214.998 255.907 215.519 256.882C216.04 257.858 216.283 258.973 216.283 260.193C216.283 261.412 216.005 262.528 215.519 263.503C214.998 264.479 214.304 265.246 213.436 265.803C212.569 266.361 211.597 266.64 210.556 266.64C209.584 266.64 208.751 266.43 208.022 266.012C207.293 265.594 206.737 265.071 206.356 264.444H206.251L206.356 266.152V271.623H204.273V254.164H204.238ZM212.187 264.27C212.812 263.887 213.298 263.364 213.645 262.667C214.027 261.97 214.2 261.169 214.2 260.262C214.2 259.356 214.027 258.555 213.645 257.858C213.263 257.161 212.777 256.638 212.187 256.255C211.562 255.872 210.903 255.698 210.208 255.698C209.48 255.698 208.82 255.872 208.23 256.255C207.64 256.638 207.119 257.161 206.772 257.858C206.39 258.555 206.217 259.356 206.217 260.297C206.217 261.203 206.39 262.005 206.772 262.737C207.154 263.434 207.64 263.956 208.23 264.34C208.82 264.723 209.514 264.897 210.208 264.897C210.937 264.827 211.597 264.618 212.187 264.27Z" fill="#636D74"/>
<path d="M221.15 265.873C220.248 265.315 219.519 264.549 218.998 263.573C218.477 262.597 218.234 261.482 218.234 260.227C218.234 259.043 218.477 257.962 218.963 256.987C219.449 256.011 220.143 255.209 221.046 254.652C221.948 254.06 222.99 253.781 224.17 253.781C225.35 253.781 226.357 254.06 227.259 254.582C228.161 255.105 228.821 255.872 229.307 256.812C229.793 257.788 230.001 258.903 230.001 260.158C230.001 260.402 230.001 260.541 229.966 260.646H220.352C220.386 261.552 220.595 262.318 221.011 262.946C221.428 263.573 221.914 264.061 222.538 264.339C223.163 264.653 223.788 264.792 224.413 264.792C225.94 264.792 227.12 264.026 227.953 262.527L229.793 263.399C229.272 264.374 228.543 265.176 227.641 265.768C226.738 266.361 225.628 266.674 224.343 266.674C223.094 266.709 222.052 266.43 221.15 265.873ZM227.78 258.903C227.745 258.415 227.606 257.928 227.363 257.44C227.12 256.952 226.738 256.534 226.183 256.185C225.628 255.837 224.968 255.663 224.135 255.663C223.198 255.663 222.4 255.941 221.74 256.534C221.081 257.126 220.664 257.893 220.456 258.868H227.78V258.903Z" fill="#636D74"/>
<path d="M232.045 254.164H234.023V256.151H234.128C234.37 255.488 234.822 254.931 235.516 254.443C236.21 253.99 236.939 253.746 237.633 253.746C238.154 253.746 238.605 253.816 239.056 253.955V256.22C238.605 255.976 238.05 255.837 237.356 255.837C236.8 255.837 236.245 256.011 235.759 256.325C235.273 256.638 234.856 257.091 234.579 257.649C234.301 258.207 234.128 258.799 234.128 259.461V266.221H232.045V254.164Z" fill="#636D74"/>
<path d="M249.747 265.49C248.358 264.689 247.248 263.574 246.449 262.18C245.651 260.786 245.234 259.218 245.234 257.51C245.234 255.803 245.651 254.27 246.449 252.841C247.248 251.447 248.358 250.332 249.747 249.531C251.135 248.729 252.662 248.346 254.294 248.346C255.578 248.346 256.793 248.59 257.904 249.043C259.049 249.496 259.951 250.158 260.68 250.994L259.188 252.493C258.632 251.796 257.938 251.273 257.036 250.924C256.168 250.541 255.231 250.367 254.259 250.367C253.044 250.367 251.899 250.68 250.823 251.273C249.747 251.865 248.914 252.702 248.254 253.782C247.595 254.862 247.282 256.117 247.282 257.545C247.282 258.939 247.595 260.194 248.254 261.309C248.914 262.389 249.747 263.26 250.823 263.853C251.899 264.445 253.044 264.759 254.259 264.759C255.439 264.759 256.411 264.584 257.209 264.201C258.008 263.818 258.702 263.365 259.257 262.738C259.674 262.285 260.021 261.727 260.299 261.065C260.542 260.403 260.715 259.706 260.75 258.939H254.294V256.988H262.694C262.763 257.441 262.832 257.859 262.832 258.277C262.832 259.357 262.659 260.403 262.312 261.413C261.965 262.424 261.409 263.33 260.68 264.097C259.049 265.839 256.897 266.71 254.259 266.71C252.628 266.71 251.135 266.292 249.747 265.49Z" fill="#636D74"/>
<path d="M265.23 254.164H267.209V256.151H267.313C267.556 255.488 268.007 254.931 268.701 254.443C269.396 253.99 270.125 253.746 270.819 253.746C271.339 253.746 271.791 253.816 272.242 253.955V256.22C271.791 255.976 271.235 255.837 270.541 255.837C269.986 255.837 269.43 256.011 268.944 256.325C268.459 256.638 268.042 257.091 267.764 257.649C267.487 258.207 267.313 258.799 267.313 259.461V266.221H265.23V254.164Z" fill="#636D74"/>
<path d="M275.51 265.873C274.573 265.315 273.844 264.549 273.289 263.538C272.768 262.562 272.49 261.447 272.49 260.228C272.49 259.008 272.768 257.928 273.289 256.917C273.809 255.941 274.538 255.14 275.51 254.582C276.447 254.025 277.523 253.746 278.703 253.746C279.883 253.746 280.959 254.025 281.897 254.582C282.834 255.14 283.597 255.907 284.118 256.917C284.639 257.893 284.916 259.008 284.916 260.228C284.916 261.447 284.639 262.528 284.118 263.538C283.597 264.514 282.834 265.315 281.897 265.873C280.959 266.43 279.883 266.709 278.703 266.709C277.523 266.709 276.447 266.43 275.51 265.873ZM280.751 264.27C281.376 263.887 281.897 263.364 282.278 262.667C282.66 261.97 282.869 261.169 282.869 260.262C282.869 259.356 282.66 258.555 282.278 257.858C281.897 257.161 281.376 256.638 280.751 256.255C280.126 255.872 279.432 255.698 278.703 255.698C277.974 255.698 277.315 255.872 276.69 256.255C276.065 256.638 275.545 257.161 275.163 257.858C274.781 258.555 274.573 259.356 274.573 260.262C274.573 261.169 274.781 261.97 275.163 262.667C275.545 263.364 276.065 263.887 276.69 264.27C277.315 264.653 278.009 264.827 278.703 264.827C279.432 264.827 280.092 264.618 280.751 264.27Z" fill="#636D74"/>
<path d="M287.931 265.42C287.167 264.549 286.785 263.364 286.785 261.831V254.165H288.868V261.482C288.868 262.667 289.145 263.538 289.666 264.061C290.187 264.584 290.95 264.828 291.888 264.828C292.547 264.828 293.137 264.654 293.658 264.27C294.178 263.887 294.595 263.399 294.873 262.807C295.15 262.214 295.289 261.552 295.289 260.89V254.165H297.337V266.326H295.393V264.514H295.289C294.942 265.141 294.387 265.664 293.658 266.082C292.929 266.5 292.165 266.709 291.332 266.709C289.84 266.709 288.729 266.291 287.931 265.42Z" fill="#636D74"/>
<path d="M300.039 254.164H302.018V255.941H302.122C302.503 255.314 303.059 254.792 303.822 254.373C304.551 253.955 305.384 253.746 306.356 253.746C307.398 253.746 308.369 254.025 309.237 254.582C310.105 255.14 310.799 255.907 311.32 256.882C311.841 257.858 312.083 258.973 312.083 260.193C312.083 261.412 311.806 262.528 311.32 263.503C310.799 264.479 310.105 265.246 309.237 265.803C308.369 266.361 307.398 266.64 306.356 266.64C305.384 266.64 304.551 266.43 303.822 266.012C303.094 265.594 302.538 265.071 302.156 264.444H302.052L302.156 266.152V271.623H300.074V254.164H300.039ZM308.022 264.27C308.647 263.887 309.133 263.364 309.48 262.667C309.862 261.97 310.036 261.169 310.036 260.262C310.036 259.356 309.862 258.555 309.48 257.858C309.098 257.161 308.612 256.638 308.022 256.255C307.398 255.872 306.738 255.698 306.044 255.698C305.315 255.698 304.656 255.872 304.065 256.255C303.475 256.638 302.955 257.161 302.608 257.858C302.226 258.555 302.052 259.356 302.052 260.297C302.052 261.203 302.226 262.005 302.608 262.737C302.989 263.434 303.475 263.956 304.065 264.34C304.656 264.723 305.35 264.897 306.044 264.897C306.738 264.827 307.398 264.618 308.022 264.27Z" fill="#636D74"/>
<path d="M315.111 265.733C314.208 265.071 313.583 264.27 313.236 263.294L315.076 262.493C315.388 263.259 315.84 263.852 316.43 264.27C317.02 264.688 317.679 264.897 318.373 264.897C319.137 264.897 319.797 264.723 320.317 264.374C320.838 264.026 321.081 263.608 321.081 263.12C321.081 262.632 320.873 262.249 320.491 261.935C320.109 261.621 319.449 261.343 318.512 261.133L316.846 260.715C315.944 260.506 315.145 260.123 314.521 259.565C313.861 259.008 313.549 258.276 313.549 257.37C313.549 256.603 313.757 255.976 314.208 255.419C314.625 254.896 315.215 254.478 315.944 254.199C316.673 253.92 317.436 253.781 318.269 253.781C319.311 253.781 320.248 254.025 321.116 254.513C321.983 255 322.573 255.663 322.92 256.569L321.081 257.335C320.803 256.743 320.421 256.325 319.901 256.046C319.38 255.767 318.79 255.628 318.13 255.628C317.506 255.628 316.916 255.767 316.395 256.081C315.874 256.394 315.631 256.778 315.631 257.265C315.631 257.684 315.805 258.032 316.117 258.276C316.464 258.52 316.985 258.729 317.714 258.938L319.519 259.391C320.734 259.705 321.636 260.158 322.226 260.785C322.816 261.412 323.129 262.144 323.129 262.98C323.129 263.677 322.92 264.305 322.504 264.897C322.087 265.455 321.532 265.908 320.803 266.256C320.074 266.57 319.241 266.744 318.304 266.744C317.089 266.709 315.978 266.395 315.111 265.733Z" fill="#636D74"/>
<path d="M334.025 265.49C332.672 264.689 331.596 263.574 330.797 262.145C330.034 260.751 329.617 259.218 329.617 257.545C329.617 255.872 329.999 254.339 330.797 252.945C331.561 251.551 332.637 250.436 334.025 249.6C335.379 248.799 336.906 248.38 338.572 248.38C340.238 248.38 341.766 248.799 343.119 249.6C344.473 250.402 345.549 251.517 346.347 252.945C347.111 254.339 347.528 255.872 347.528 257.545C347.528 259.218 347.146 260.751 346.347 262.145C345.584 263.539 344.508 264.654 343.119 265.49C341.766 266.292 340.238 266.71 338.572 266.71C336.906 266.71 335.379 266.292 334.025 265.49ZM342.043 263.818C343.085 263.19 343.918 262.354 344.543 261.274C345.167 260.194 345.445 258.939 345.445 257.545C345.445 256.151 345.133 254.932 344.543 253.817C343.918 252.736 343.119 251.865 342.043 251.273C341.002 250.645 339.857 250.367 338.607 250.367C337.358 250.367 336.212 250.68 335.171 251.273C334.13 251.9 333.296 252.736 332.672 253.817C332.047 254.897 331.769 256.151 331.769 257.545C331.769 258.939 332.082 260.159 332.672 261.274C333.296 262.354 334.095 263.225 335.171 263.818C336.212 264.445 337.358 264.724 338.607 264.724C339.857 264.724 341.002 264.41 342.043 263.818Z" fill="#636D74"/>
<path d="M349.792 254.164H351.771V255.976H351.875C352.222 255.349 352.742 254.826 353.471 254.408C354.2 253.99 354.999 253.781 355.797 253.781C357.289 253.781 358.4 254.199 359.164 255.07C359.927 255.941 360.309 257.126 360.309 258.625V266.326H358.261V258.938C358.261 257.753 357.984 256.917 357.463 256.429C356.942 255.906 356.179 255.663 355.207 255.663C354.547 255.663 353.957 255.837 353.437 256.22C352.916 256.603 352.499 257.091 352.222 257.684C351.944 258.276 351.805 258.938 351.805 259.6V266.326H349.723V254.164H349.792Z" fill="#636D74"/>
<path d="M371.96 265.49C370.572 264.689 369.496 263.574 368.698 262.18C367.899 260.786 367.518 259.218 367.518 257.51C367.518 255.803 367.899 254.27 368.698 252.841C369.496 251.447 370.572 250.332 371.96 249.531C373.349 248.729 374.876 248.346 376.542 248.346C377.861 248.346 379.076 248.59 380.152 249.077C381.228 249.565 382.165 250.297 382.929 251.203L381.471 252.632C380.812 251.83 380.083 251.238 379.284 250.855C378.486 250.471 377.549 250.297 376.542 250.297C375.293 250.297 374.147 250.611 373.071 251.203C372.03 251.796 371.162 252.632 370.537 253.712C369.913 254.792 369.6 256.047 369.6 257.476C369.6 258.904 369.913 260.159 370.537 261.239C371.162 262.319 371.995 263.156 373.071 263.748C374.112 264.341 375.293 264.654 376.542 264.654C378.66 264.654 380.464 263.783 381.957 262.041L383.45 263.504C382.651 264.48 381.645 265.247 380.464 265.804C379.284 266.362 377.965 266.64 376.542 266.64C374.876 266.71 373.349 266.292 371.96 265.49Z" fill="#636D74"/>
<path d="M386.819 266.187C386.124 265.839 385.569 265.351 385.153 264.724C384.771 264.096 384.562 263.399 384.562 262.598C384.562 261.309 385.048 260.298 386.02 259.601C386.992 258.869 388.242 258.521 389.734 258.521C390.498 258.521 391.157 258.59 391.748 258.765C392.338 258.939 392.824 259.113 393.171 259.287V258.66C393.171 258.068 393.032 257.545 392.719 257.092C392.407 256.639 392.025 256.256 391.505 256.012C390.984 255.768 390.463 255.628 389.873 255.628C388.485 255.628 387.443 256.186 386.715 257.336L384.979 256.186C385.5 255.419 386.159 254.862 386.992 254.444C387.825 254.025 388.728 253.816 389.769 253.816C391.435 253.816 392.754 254.269 393.691 255.175C394.663 256.081 395.114 257.266 395.114 258.8V266.361H393.136V264.584H393.032C392.65 265.211 392.129 265.734 391.435 266.152C390.776 266.57 390.012 266.78 389.11 266.78C388.311 266.71 387.513 266.536 386.819 266.187ZM391.227 264.34C391.817 263.992 392.303 263.539 392.65 262.946C393.032 262.354 393.205 261.727 393.205 261.03C392.303 260.437 391.262 260.159 390.047 260.159C389.005 260.159 388.207 260.402 387.582 260.856C386.958 261.309 386.68 261.901 386.68 262.633C386.68 263.295 386.958 263.818 387.478 264.236C387.999 264.654 388.658 264.863 389.353 264.863C390.012 264.863 390.637 264.689 391.227 264.34Z" fill="#636D74"/>
<path d="M397.752 254.164H399.73V255.976H399.835C400.182 255.349 400.702 254.826 401.431 254.408C402.16 253.99 402.889 253.781 403.653 253.781C404.555 253.781 405.353 253.99 406.013 254.443C406.672 254.861 407.158 255.453 407.436 256.22C407.887 255.488 408.477 254.896 409.206 254.443C409.935 253.99 410.734 253.781 411.671 253.781C413.094 253.781 414.135 254.199 414.864 255.07C415.593 255.941 415.94 257.126 415.94 258.659V266.326H413.857V258.973C413.857 257.788 413.649 256.917 413.198 256.429C412.747 255.906 412.053 255.663 411.15 255.663C410.525 255.663 409.97 255.837 409.484 256.22C408.998 256.603 408.616 257.091 408.339 257.684C408.061 258.276 407.922 258.938 407.922 259.6V266.326H405.874V258.973C405.874 257.788 405.631 256.917 405.18 256.429C404.729 255.906 404.034 255.663 403.132 255.663C402.507 255.663 401.952 255.837 401.431 256.22C400.945 256.603 400.563 257.091 400.286 257.684C400.008 258.276 399.869 258.938 399.869 259.635V266.326H397.787V254.164H397.752Z" fill="#636D74"/>
<path d="M418.508 254.164H420.486V255.941H420.59C420.972 255.314 421.528 254.792 422.291 254.373C423.02 253.955 423.853 253.746 424.825 253.746C425.866 253.746 426.838 254.025 427.706 254.582C428.574 255.14 429.268 255.907 429.789 256.882C430.309 257.858 430.552 258.973 430.552 260.193C430.552 261.412 430.275 262.528 429.789 263.503C429.268 264.479 428.574 265.246 427.706 265.803C426.838 266.361 425.866 266.64 424.825 266.64C423.853 266.64 423.02 266.43 422.291 266.012C421.562 265.594 421.007 265.071 420.625 264.444H420.521L420.625 266.152V271.623H418.543V254.164H418.508ZM426.456 264.27C427.081 263.887 427.567 263.364 427.914 262.667C428.296 261.97 428.47 261.169 428.47 260.262C428.47 259.356 428.296 258.555 427.914 257.858C427.532 257.161 427.047 256.638 426.456 256.255C425.832 255.872 425.172 255.698 424.478 255.698C423.749 255.698 423.09 255.872 422.499 256.255C421.909 256.638 421.389 257.161 421.042 257.858C420.66 258.555 420.486 259.356 420.486 260.297C420.486 261.203 420.66 262.005 421.042 262.737C421.423 263.434 421.909 263.956 422.499 264.34C423.09 264.723 423.784 264.897 424.478 264.897C425.207 264.827 425.866 264.618 426.456 264.27Z" fill="#636D74"/>
<path d="M433.604 265.42C432.841 264.549 432.459 263.364 432.459 261.831V254.165H434.542V261.482C434.542 262.667 434.819 263.538 435.34 264.061C435.861 264.584 436.624 264.828 437.561 264.828C438.221 264.828 438.811 264.654 439.332 264.27C439.852 263.887 440.269 263.399 440.546 262.807C440.824 262.214 440.963 261.552 440.963 260.89V254.165H443.011V266.326H441.067V264.514H440.963C440.616 265.141 440.061 265.664 439.332 266.082C438.603 266.5 437.839 266.709 437.006 266.709C435.513 266.709 434.368 266.291 433.604 265.42Z" fill="#636D74"/>
<path d="M446.691 265.733C445.788 265.071 445.164 264.27 444.816 263.294L446.656 262.493C446.968 263.259 447.42 263.852 448.01 264.27C448.6 264.688 449.259 264.897 449.954 264.897C450.717 264.897 451.377 264.723 451.897 264.374C452.418 264.026 452.661 263.608 452.661 263.12C452.661 262.632 452.453 262.249 452.071 261.935C451.689 261.621 451.03 261.343 450.092 261.133L448.426 260.715C447.524 260.506 446.725 260.123 446.101 259.565C445.441 259.008 445.129 258.276 445.129 257.37C445.129 256.603 445.337 255.976 445.788 255.419C446.205 254.896 446.795 254.478 447.524 254.199C448.253 253.92 449.016 253.781 449.849 253.781C450.891 253.781 451.828 254.025 452.696 254.513C453.563 255 454.153 255.663 454.501 256.569L452.661 257.335C452.383 256.743 452.001 256.325 451.481 256.046C450.96 255.767 450.37 255.628 449.711 255.628C449.086 255.628 448.496 255.767 447.975 256.081C447.454 256.394 447.211 256.778 447.211 257.265C447.211 257.684 447.385 258.032 447.697 258.276C448.044 258.52 448.565 258.729 449.294 258.938L451.099 259.391C452.314 259.705 453.216 260.158 453.806 260.785C454.396 261.412 454.709 262.144 454.709 262.98C454.709 263.677 454.501 264.305 454.084 264.897C453.668 265.455 453.112 265.908 452.383 266.256C451.654 266.57 450.821 266.744 449.884 266.744C448.669 266.709 447.593 266.395 446.691 265.733Z" fill="#636D74"/>
<path d="M83 294.167V280.118H85.3691L89.7739 291.638H89.8454L94.2502 280.118H96.6193V294.167H95.0002V285.237L95.0716 282.575H95.0002L90.4882 294.167H89.1311L84.6191 282.575H84.5357L84.6191 285.237V294.167H83ZM103.567 294.482C102.614 294.482 101.769 294.252 101.031 293.792C100.293 293.332 99.7135 292.707 99.2928 291.916C98.8722 291.118 98.6619 290.206 98.6619 289.182C98.6619 288.23 98.8563 287.35 99.2452 286.544C99.642 285.729 100.198 285.076 100.912 284.583C101.626 284.091 102.467 283.845 103.436 283.845C104.412 283.845 105.249 284.067 105.948 284.511C106.654 284.946 107.194 285.551 107.567 286.326C107.948 287.092 108.138 287.972 108.138 288.964C108.138 289.061 108.134 289.153 108.126 289.242C108.126 289.331 108.118 289.412 108.102 289.484H99.6262V288.105H106.4C106.392 287.83 106.333 287.536 106.222 287.221C106.11 286.899 105.936 286.596 105.698 286.314C105.46 286.031 105.158 285.802 104.793 285.624C104.428 285.447 103.975 285.358 103.436 285.358C102.793 285.358 102.233 285.527 101.757 285.866C101.289 286.197 100.928 286.649 100.674 287.221C100.428 287.794 100.305 288.448 100.305 289.182C100.305 290.037 100.463 290.747 100.781 291.311C101.106 291.868 101.523 292.283 102.031 292.558C102.539 292.832 103.071 292.969 103.626 292.969C104.348 292.969 104.944 292.796 105.412 292.449C105.88 292.102 106.257 291.674 106.543 291.166L107.924 291.856C107.543 292.614 106.991 293.243 106.269 293.743C105.547 294.236 104.646 294.482 103.567 294.482ZM114.468 298.717C113.635 298.717 112.917 298.576 112.314 298.293C111.718 298.011 111.238 297.652 110.873 297.216C110.508 296.789 110.246 296.353 110.087 295.909L111.599 295.268C111.806 295.817 112.155 296.277 112.647 296.648C113.139 297.019 113.746 297.204 114.468 297.204C115.5 297.204 116.29 296.902 116.838 296.297C117.393 295.692 117.671 294.845 117.671 293.756V292.642H117.599C117.29 293.126 116.845 293.534 116.266 293.865C115.687 294.195 115.012 294.361 114.242 294.361C113.393 294.361 112.615 294.139 111.909 293.695C111.21 293.251 110.655 292.634 110.242 291.844C109.829 291.053 109.623 290.142 109.623 289.109C109.623 288.076 109.829 287.165 110.242 286.374C110.655 285.584 111.21 284.967 111.909 284.523C112.615 284.071 113.393 283.845 114.242 283.845C115.012 283.845 115.687 284.015 116.266 284.354C116.845 284.684 117.29 285.1 117.599 285.6H117.671V284.16H119.242V293.78C119.242 294.885 119.032 295.805 118.611 296.539C118.191 297.273 117.623 297.817 116.909 298.172C116.195 298.535 115.381 298.717 114.468 298.717ZM114.468 292.848C115.048 292.848 115.58 292.703 116.064 292.412C116.556 292.114 116.945 291.686 117.23 291.13C117.524 290.565 117.671 289.892 117.671 289.109C117.671 288.294 117.524 287.609 117.23 287.052C116.945 286.495 116.556 286.076 116.064 285.793C115.58 285.503 115.048 285.358 114.468 285.358C113.889 285.358 113.353 285.507 112.861 285.806C112.377 286.096 111.988 286.519 111.695 287.076C111.401 287.633 111.254 288.31 111.254 289.109C111.254 289.908 111.401 290.585 111.695 291.142C111.988 291.69 112.377 292.114 112.861 292.412C113.353 292.703 113.889 292.848 114.468 292.848ZM121.668 294.167V280.118H123.311V284.257L123.227 285.636H123.311C123.565 285.136 123.985 284.712 124.573 284.366C125.16 284.019 125.807 283.845 126.513 283.845C127.346 283.845 128.033 284.019 128.573 284.366C129.12 284.704 129.529 285.164 129.799 285.745C130.069 286.326 130.204 286.995 130.204 287.754V294.167H128.561V288.008C128.561 287.371 128.446 286.858 128.216 286.471C127.993 286.084 127.7 285.802 127.335 285.624C126.97 285.447 126.569 285.358 126.132 285.358C125.585 285.358 125.1 285.515 124.68 285.83C124.259 286.144 123.926 286.552 123.68 287.052C123.434 287.544 123.311 288.06 123.311 288.601V294.167H121.668ZM132.552 294.167V284.16H134.111V285.636H134.195C134.449 285.152 134.869 284.733 135.457 284.378C136.044 284.023 136.683 283.845 137.373 283.845C138.588 283.845 139.5 284.204 140.112 284.922C140.723 285.632 141.028 286.576 141.028 287.754V294.167H139.385V288.008C139.385 287.04 139.155 286.358 138.695 285.963C138.242 285.56 137.655 285.358 136.933 285.358C136.393 285.358 135.917 285.511 135.504 285.818C135.092 286.124 134.77 286.519 134.54 287.004C134.31 287.488 134.195 288 134.195 288.54V294.167H132.552ZM146.424 294.482C145.694 294.482 145.051 294.34 144.496 294.058C143.948 293.768 143.516 293.372 143.198 292.872C142.881 292.364 142.722 291.787 142.722 291.142C142.722 290.416 142.909 289.803 143.282 289.303C143.655 288.794 144.155 288.415 144.782 288.165C145.417 287.907 146.115 287.778 146.877 287.778C147.313 287.778 147.718 287.814 148.091 287.887C148.464 287.951 148.786 288.036 149.055 288.141C149.333 288.238 149.544 288.331 149.686 288.419V287.814C149.686 287.056 149.421 286.455 148.889 286.011C148.365 285.568 147.726 285.346 146.972 285.346C146.432 285.346 145.924 285.467 145.448 285.709C144.98 285.951 144.611 286.286 144.341 286.713L143.115 285.769C143.369 285.382 143.686 285.043 144.067 284.753C144.456 284.462 144.897 284.241 145.389 284.087C145.889 283.926 146.417 283.845 146.972 283.845C148.305 283.845 149.353 284.208 150.115 284.934C150.877 285.652 151.258 286.616 151.258 287.826V294.167H149.686V292.739H149.615C149.448 293.022 149.21 293.3 148.901 293.574C148.591 293.84 148.226 294.058 147.805 294.228C147.393 294.397 146.932 294.482 146.424 294.482ZM146.579 293.005C147.151 293.005 147.671 292.864 148.139 292.582C148.607 292.291 148.98 291.904 149.258 291.42C149.544 290.936 149.686 290.408 149.686 289.835C149.393 289.625 149.024 289.456 148.579 289.327C148.135 289.19 147.651 289.121 147.127 289.121C146.182 289.121 145.492 289.319 145.055 289.714C144.619 290.109 144.401 290.593 144.401 291.166C144.401 291.715 144.607 292.158 145.02 292.497C145.432 292.836 145.952 293.005 146.579 293.005ZM157.623 294.482C156.734 294.482 155.932 294.252 155.218 293.792C154.504 293.332 153.94 292.707 153.527 291.916C153.115 291.118 152.908 290.202 152.908 289.17C152.908 288.137 153.115 287.221 153.527 286.423C153.94 285.624 154.504 284.995 155.218 284.535C155.932 284.075 156.734 283.845 157.623 283.845C158.147 283.845 158.627 283.93 159.063 284.099C159.508 284.269 159.893 284.495 160.218 284.777C160.543 285.051 160.797 285.342 160.98 285.648H161.051L160.98 284.257V280.118H162.623V294.167H161.051V292.691H160.98C160.797 292.997 160.543 293.288 160.218 293.562C159.893 293.836 159.508 294.058 159.063 294.228C158.627 294.397 158.147 294.482 157.623 294.482ZM157.789 292.969C158.361 292.969 158.893 292.816 159.385 292.509C159.885 292.203 160.286 291.767 160.587 291.202C160.897 290.63 161.051 289.952 161.051 289.17C161.051 288.379 160.897 287.701 160.587 287.137C160.286 286.564 159.885 286.124 159.385 285.818C158.893 285.511 158.361 285.358 157.789 285.358C157.226 285.358 156.694 285.511 156.194 285.818C155.702 286.124 155.301 286.564 154.992 287.137C154.69 287.701 154.539 288.379 154.539 289.17C154.539 289.936 154.69 290.609 154.992 291.19C155.301 291.763 155.702 292.203 156.194 292.509C156.694 292.816 157.226 292.969 157.789 292.969ZM173.138 294.482C172.472 294.482 171.809 294.34 171.15 294.058C170.491 293.768 169.912 293.34 169.412 292.775C168.912 292.211 168.547 291.509 168.317 290.67L169.876 290.029C170.091 290.835 170.487 291.517 171.067 292.074C171.646 292.622 172.349 292.896 173.174 292.896C173.69 292.896 174.162 292.804 174.591 292.618C175.027 292.425 175.376 292.146 175.638 291.783C175.9 291.412 176.031 290.964 176.031 290.44C176.031 289.972 175.916 289.577 175.686 289.254C175.464 288.923 175.126 288.629 174.674 288.371C174.23 288.113 173.678 287.867 173.019 287.633L172.15 287.318C171.769 287.173 171.38 286.999 170.983 286.798C170.595 286.596 170.233 286.35 169.9 286.06C169.575 285.761 169.313 285.406 169.114 284.995C168.924 284.583 168.829 284.095 168.829 283.531C168.829 282.853 169.007 282.236 169.364 281.679C169.729 281.115 170.226 280.663 170.853 280.324C171.487 279.977 172.218 279.804 173.043 279.804C173.9 279.804 174.622 279.965 175.21 280.288C175.797 280.61 176.261 280.99 176.603 281.425C176.944 281.861 177.17 282.264 177.281 282.635L175.757 283.301C175.686 283.026 175.539 282.744 175.317 282.454C175.095 282.155 174.801 281.905 174.436 281.703C174.071 281.502 173.61 281.401 173.055 281.401C172.61 281.401 172.19 281.494 171.793 281.679C171.404 281.857 171.091 282.107 170.853 282.43C170.614 282.752 170.495 283.119 170.495 283.531C170.495 284.12 170.726 284.587 171.186 284.934C171.654 285.273 172.277 285.58 173.055 285.854L173.972 286.169C174.376 286.306 174.793 286.479 175.222 286.689C175.658 286.899 176.063 287.169 176.436 287.5C176.809 287.822 177.111 288.226 177.341 288.71C177.571 289.186 177.686 289.754 177.686 290.416C177.686 291.142 177.547 291.763 177.269 292.279C176.999 292.796 176.638 293.219 176.186 293.55C175.734 293.873 175.241 294.107 174.71 294.252C174.178 294.405 173.654 294.482 173.138 294.482ZM182.936 294.482C182.206 294.482 181.563 294.34 181.007 294.058C180.46 293.768 180.027 293.372 179.71 292.872C179.392 292.364 179.234 291.787 179.234 291.142C179.234 290.416 179.42 289.803 179.793 289.303C180.166 288.794 180.666 288.415 181.293 288.165C181.928 287.907 182.627 287.778 183.388 287.778C183.825 287.778 184.23 287.814 184.603 287.887C184.976 287.951 185.297 288.036 185.567 288.141C185.845 288.238 186.055 288.331 186.198 288.419V287.814C186.198 287.056 185.932 286.455 185.4 286.011C184.877 285.568 184.238 285.346 183.484 285.346C182.944 285.346 182.436 285.467 181.96 285.709C181.492 285.951 181.123 286.286 180.853 286.713L179.626 285.769C179.88 285.382 180.198 285.043 180.579 284.753C180.968 284.462 181.408 284.241 181.9 284.087C182.4 283.926 182.928 283.845 183.484 283.845C184.817 283.845 185.865 284.208 186.627 284.934C187.389 285.652 187.769 286.616 187.769 287.826V294.167H186.198V292.739H186.127C185.96 293.022 185.722 293.3 185.412 293.574C185.103 293.84 184.738 294.058 184.317 294.228C183.904 294.397 183.444 294.482 182.936 294.482ZM183.091 293.005C183.662 293.005 184.182 292.864 184.65 292.582C185.119 292.291 185.492 291.904 185.769 291.42C186.055 290.936 186.198 290.408 186.198 289.835C185.904 289.625 185.535 289.456 185.091 289.327C184.646 289.19 184.162 289.121 183.638 289.121C182.694 289.121 182.004 289.319 181.567 289.714C181.13 290.109 180.912 290.593 180.912 291.166C180.912 291.715 181.119 292.158 181.531 292.497C181.944 292.836 182.464 293.005 183.091 293.005ZM190.04 294.167V280.118H191.683V284.257L191.6 285.636H191.683C191.937 285.136 192.358 284.712 192.945 284.366C193.532 284.019 194.179 283.845 194.886 283.845C195.719 283.845 196.406 284.019 196.945 284.366C197.493 284.704 197.902 285.164 198.171 285.745C198.441 286.326 198.576 286.995 198.576 287.754V294.167H196.933V288.008C196.933 287.371 196.818 286.858 196.588 286.471C196.366 286.084 196.072 285.802 195.707 285.624C195.342 285.447 194.941 285.358 194.505 285.358C193.957 285.358 193.473 285.515 193.052 285.83C192.632 286.144 192.298 286.552 192.052 287.052C191.806 287.544 191.683 288.06 191.683 288.601V294.167H190.04ZM203.971 294.482C203.241 294.482 202.598 294.34 202.042 294.058C201.495 293.768 201.062 293.372 200.745 292.872C200.427 292.364 200.268 291.787 200.268 291.142C200.268 290.416 200.455 289.803 200.828 289.303C201.201 288.794 201.701 288.415 202.328 288.165C202.963 287.907 203.661 287.778 204.423 287.778C204.86 287.778 205.265 287.814 205.638 287.887C206.011 287.951 206.332 288.036 206.602 288.141C206.88 288.238 207.09 288.331 207.233 288.419V287.814C207.233 287.056 206.967 286.455 206.435 286.011C205.911 285.568 205.272 285.346 204.518 285.346C203.979 285.346 203.471 285.467 202.995 285.709C202.526 285.951 202.157 286.286 201.887 286.713L200.661 285.769C200.915 285.382 201.233 285.043 201.614 284.753C202.003 284.462 202.443 284.241 202.935 284.087C203.435 283.926 203.963 283.845 204.518 283.845C205.852 283.845 206.899 284.208 207.661 284.934C208.423 285.652 208.804 286.616 208.804 287.826V294.167H207.233V292.739H207.161C206.995 293.022 206.757 293.3 206.447 293.574C206.138 293.84 205.772 294.058 205.352 294.228C204.939 294.397 204.479 294.482 203.971 294.482ZM204.126 293.005C204.697 293.005 205.217 292.864 205.685 292.582C206.153 292.291 206.526 291.904 206.804 291.42C207.09 290.936 207.233 290.408 207.233 289.835C206.939 289.625 206.57 289.456 206.126 289.327C205.681 289.19 205.197 289.121 204.673 289.121C203.729 289.121 203.038 289.319 202.602 289.714C202.165 290.109 201.947 290.593 201.947 291.166C201.947 291.715 202.153 292.158 202.566 292.497C202.979 292.836 203.499 293.005 204.126 293.005ZM215.886 294.167V280.118H217.517V294.167H215.886ZM220.28 294.167V284.16H221.84V285.636H221.923C222.177 285.152 222.598 284.733 223.185 284.378C223.772 284.023 224.411 283.845 225.102 283.845C226.316 283.845 227.229 284.204 227.84 284.922C228.451 285.632 228.757 286.576 228.757 287.754V294.167H227.114V288.008C227.114 287.04 226.884 286.358 226.423 285.963C225.971 285.56 225.384 285.358 224.661 285.358C224.122 285.358 223.645 285.511 223.233 285.818C222.82 286.124 222.499 286.519 222.268 287.004C222.038 287.488 221.923 288 221.923 288.54V294.167H220.28ZM234.45 294.482C233.712 294.482 233.062 294.361 232.498 294.119C231.942 293.877 231.482 293.55 231.117 293.138C230.752 292.727 230.478 292.279 230.296 291.795L231.76 291.13C232.022 291.727 232.395 292.191 232.879 292.521C233.371 292.844 233.931 293.005 234.558 293.005C235.169 293.005 235.677 292.884 236.081 292.642C236.486 292.392 236.689 292.025 236.689 291.541C236.689 291.243 236.605 290.993 236.439 290.791C236.272 290.581 236.026 290.408 235.7 290.271C235.383 290.125 234.99 289.992 234.522 289.871L233.331 289.557C232.863 289.428 232.423 289.246 232.01 289.012C231.605 288.77 231.276 288.464 231.022 288.093C230.768 287.721 230.641 287.27 230.641 286.737C230.641 286.132 230.815 285.616 231.165 285.188C231.514 284.753 231.97 284.422 232.534 284.196C233.105 283.962 233.712 283.845 234.355 283.845C234.919 283.845 235.446 283.93 235.939 284.099C236.439 284.261 236.875 284.503 237.248 284.825C237.621 285.14 237.903 285.535 238.093 286.011L236.665 286.677C236.419 286.177 236.089 285.83 235.677 285.636C235.272 285.443 234.816 285.346 234.308 285.346C233.768 285.346 233.3 285.467 232.903 285.709C232.506 285.951 232.308 286.277 232.308 286.689C232.308 287.108 232.47 287.423 232.796 287.633C233.121 287.842 233.522 288.012 233.998 288.141L235.427 288.516C236.395 288.766 237.121 289.137 237.605 289.629C238.097 290.121 238.343 290.718 238.343 291.42C238.343 292.049 238.169 292.594 237.82 293.054C237.478 293.506 237.01 293.856 236.415 294.107C235.82 294.357 235.165 294.482 234.45 294.482ZM239.363 284.16H245.137V285.672H239.363V284.16ZM241.089 291.541V281.34H242.72V291.13C242.72 291.654 242.827 292.062 243.041 292.352C243.256 292.634 243.609 292.775 244.101 292.775C244.315 292.775 244.51 292.743 244.684 292.679C244.867 292.614 245.03 292.533 245.172 292.437V294.07C245.006 294.151 244.823 294.211 244.625 294.252C244.426 294.3 244.16 294.324 243.827 294.324C243.002 294.324 242.339 294.078 241.839 293.586C241.339 293.094 241.089 292.412 241.089 291.541ZM247.336 294.167V284.16H248.979V294.167H247.336ZM248.146 282.321C247.828 282.321 247.551 282.204 247.313 281.97C247.082 281.736 246.967 281.453 246.967 281.123C246.967 280.784 247.082 280.502 247.313 280.276C247.551 280.042 247.828 279.925 248.146 279.925C248.479 279.925 248.757 280.042 248.979 280.276C249.209 280.502 249.325 280.784 249.325 281.123C249.325 281.453 249.209 281.736 248.979 281.97C248.757 282.204 248.479 282.321 248.146 282.321ZM250.768 284.16H256.542V285.672H250.768V284.16ZM252.494 291.541V281.34H254.125V291.13C254.125 291.654 254.232 292.062 254.447 292.352C254.661 292.634 255.014 292.775 255.506 292.775C255.72 292.775 255.915 292.743 256.089 292.679C256.272 292.614 256.435 292.533 256.577 292.437V294.07C256.411 294.151 256.228 294.211 256.03 294.252C255.831 294.3 255.566 294.324 255.232 294.324C254.407 294.324 253.744 294.078 253.244 293.586C252.744 293.094 252.494 292.412 252.494 291.541ZM262.062 294.482C260.855 294.482 259.947 294.123 259.335 293.405C258.724 292.687 258.419 291.707 258.419 290.464V284.16H260.05V290.21C260.05 291.202 260.276 291.912 260.728 292.34C261.181 292.759 261.74 292.969 262.407 292.969C262.986 292.969 263.486 292.816 263.907 292.509C264.336 292.203 264.665 291.807 264.895 291.323C265.125 290.839 265.24 290.335 265.24 289.811V284.16H266.883V294.167H265.324V292.715H265.24C265.074 293.03 264.828 293.32 264.502 293.586C264.177 293.852 263.804 294.066 263.383 294.228C262.963 294.397 262.522 294.482 262.062 294.482ZM268.734 284.16H274.508V285.672H268.734V284.16ZM270.461 291.541V281.34H272.092V291.13C272.092 291.654 272.199 292.062 272.413 292.352C272.627 292.634 272.98 292.775 273.473 292.775C273.687 292.775 273.881 292.743 274.056 292.679C274.238 292.614 274.401 292.533 274.544 292.437V294.07C274.377 294.151 274.195 294.211 273.996 294.252C273.798 294.3 273.532 294.324 273.199 294.324C272.373 294.324 271.711 294.078 271.211 293.586C270.711 293.094 270.461 292.412 270.461 291.541ZM280.413 294.482C279.461 294.482 278.615 294.252 277.877 293.792C277.139 293.332 276.56 292.707 276.139 291.916C275.719 291.118 275.508 290.206 275.508 289.182C275.508 288.23 275.703 287.35 276.092 286.544C276.488 285.729 277.044 285.076 277.758 284.583C278.473 284.091 279.314 283.845 280.282 283.845C281.258 283.845 282.096 284.067 282.794 284.511C283.5 284.946 284.04 285.551 284.413 286.326C284.794 287.092 284.985 287.972 284.985 288.964C284.985 289.061 284.981 289.153 284.973 289.242C284.973 289.331 284.965 289.412 284.949 289.484H276.473V288.105H283.246C283.239 287.83 283.179 287.536 283.068 287.221C282.957 286.899 282.782 286.596 282.544 286.314C282.306 286.031 282.004 285.802 281.639 285.624C281.274 285.447 280.822 285.358 280.282 285.358C279.639 285.358 279.08 285.527 278.604 285.866C278.135 286.197 277.774 286.649 277.52 287.221C277.274 287.794 277.151 288.448 277.151 289.182C277.151 290.037 277.31 290.747 277.627 291.311C277.953 291.868 278.369 292.283 278.877 292.558C279.385 292.832 279.917 292.969 280.473 292.969C281.195 292.969 281.79 292.796 282.258 292.449C282.727 292.102 283.104 291.674 283.389 291.166L284.77 291.856C284.389 292.614 283.838 293.243 283.115 293.743C282.393 294.236 281.492 294.482 280.413 294.482ZM297.726 294.482C296.71 294.482 295.77 294.292 294.905 293.913C294.047 293.534 293.297 293.009 292.655 292.34C292.02 291.662 291.524 290.884 291.166 290.004C290.817 289.117 290.643 288.165 290.643 287.149C290.643 286.124 290.817 285.172 291.166 284.293C291.524 283.406 292.02 282.627 292.655 281.958C293.297 281.28 294.047 280.752 294.905 280.372C295.77 279.993 296.71 279.804 297.726 279.804C298.742 279.804 299.678 279.993 300.536 280.372C301.401 280.752 302.151 281.28 302.786 281.958C303.429 282.627 303.925 283.406 304.274 284.293C304.631 285.172 304.81 286.124 304.81 287.149C304.81 288.165 304.631 289.117 304.274 290.004C303.925 290.884 303.429 291.662 302.786 292.34C302.151 293.009 301.401 293.534 300.536 293.913C299.678 294.292 298.742 294.482 297.726 294.482ZM297.726 292.896C298.726 292.896 299.635 292.654 300.452 292.17C301.27 291.686 301.921 291.009 302.405 290.138C302.897 289.266 303.143 288.27 303.143 287.149C303.143 286.011 302.897 285.011 302.405 284.148C301.921 283.285 301.27 282.611 300.452 282.127C299.635 281.643 298.726 281.401 297.726 281.401C296.734 281.401 295.825 281.643 295 282.127C294.182 282.611 293.528 283.285 293.036 284.148C292.543 285.011 292.297 286.011 292.297 287.149C292.297 288.27 292.543 289.266 293.036 290.138C293.528 291.009 294.182 291.686 295 292.17C295.825 292.654 296.734 292.896 297.726 292.896ZM306.211 285.672V284.16H312.199V285.672H306.211ZM308.032 294.167V283.083C308.032 282.43 308.171 281.873 308.449 281.413C308.735 280.945 309.12 280.586 309.604 280.336C310.088 280.086 310.612 279.961 311.175 279.961C311.548 279.961 311.842 279.985 312.056 280.034C312.278 280.082 312.469 280.138 312.628 280.203V281.824C312.453 281.76 312.255 281.691 312.032 281.619C311.818 281.546 311.552 281.51 311.235 281.51C310.838 281.51 310.477 281.659 310.151 281.958C309.834 282.248 309.675 282.684 309.675 283.264V294.167H308.032ZM321.075 294.167V281.123H322.718V294.167H321.075ZM317.194 281.716V280.118H326.575V281.716H317.194ZM331.128 294.482C330.175 294.482 329.33 294.252 328.592 293.792C327.854 293.332 327.274 292.707 326.854 291.916C326.433 291.118 326.223 290.206 326.223 289.182C326.223 288.23 326.417 287.35 326.806 286.544C327.203 285.729 327.758 285.076 328.473 284.583C329.187 284.091 330.028 283.845 330.997 283.845C331.973 283.845 332.81 284.067 333.509 284.511C334.215 284.946 334.755 285.551 335.128 286.326C335.509 287.092 335.699 287.972 335.699 288.964C335.699 289.061 335.695 289.153 335.687 289.242C335.687 289.331 335.679 289.412 335.663 289.484H327.187V288.105H333.961C333.953 287.83 333.894 287.536 333.782 287.221C333.671 286.899 333.497 286.596 333.259 286.314C333.02 286.031 332.719 285.802 332.354 285.624C331.989 285.447 331.536 285.358 330.997 285.358C330.354 285.358 329.794 285.527 329.318 285.866C328.85 286.197 328.489 286.649 328.235 287.221C327.989 287.794 327.866 288.448 327.866 289.182C327.866 290.037 328.024 290.747 328.342 291.311C328.667 291.868 329.084 292.283 329.592 292.558C330.1 292.832 330.632 292.969 331.187 292.969C331.909 292.969 332.505 292.796 332.973 292.449C333.441 292.102 333.818 291.674 334.104 291.166L335.485 291.856C335.104 292.614 334.552 293.243 333.83 293.743C333.108 294.236 332.207 294.482 331.128 294.482ZM342.172 294.482C341.204 294.482 340.343 294.252 339.589 293.792C338.835 293.324 338.244 292.687 337.815 291.88C337.394 291.073 337.184 290.17 337.184 289.17C337.184 288.145 337.394 287.233 337.815 286.435C338.244 285.636 338.835 285.007 339.589 284.547C340.343 284.079 341.204 283.845 342.172 283.845C343.275 283.845 344.184 284.103 344.898 284.62C345.613 285.136 346.117 285.802 346.41 286.616L344.922 287.246C344.684 286.632 344.323 286.165 343.839 285.842C343.355 285.519 342.771 285.358 342.089 285.358C341.509 285.358 340.97 285.515 340.47 285.83C339.978 286.144 339.577 286.588 339.267 287.161C338.966 287.726 338.815 288.395 338.815 289.17C338.815 289.928 338.966 290.593 339.267 291.166C339.577 291.739 339.978 292.183 340.47 292.497C340.97 292.812 341.509 292.969 342.089 292.969C342.787 292.969 343.386 292.808 343.887 292.485C344.387 292.154 344.76 291.69 345.006 291.093L346.47 291.711C346.152 292.485 345.633 293.143 344.91 293.683C344.188 294.215 343.275 294.482 342.172 294.482ZM348.245 294.167V280.118H349.887V284.257L349.804 285.636H349.887C350.141 285.136 350.562 284.712 351.149 284.366C351.737 284.019 352.383 283.845 353.09 283.845C353.923 283.845 354.61 284.019 355.149 284.366C355.697 284.704 356.106 285.164 356.376 285.745C356.645 286.326 356.78 286.995 356.78 287.754V294.167H355.137V288.008C355.137 287.371 355.022 286.858 354.792 286.471C354.57 286.084 354.276 285.802 353.911 285.624C353.546 285.447 353.145 285.358 352.709 285.358C352.161 285.358 351.677 285.515 351.256 285.83C350.836 286.144 350.502 286.552 350.256 287.052C350.01 287.544 349.887 288.06 349.887 288.601V294.167H348.245ZM359.129 294.167V284.16H360.688V285.636H360.771C361.025 285.152 361.446 284.733 362.033 284.378C362.621 284.023 363.26 283.845 363.95 283.845C365.164 283.845 366.077 284.204 366.688 284.922C367.299 285.632 367.605 286.576 367.605 287.754V294.167H365.962V288.008C365.962 287.04 365.732 286.358 365.272 285.963C364.819 285.56 364.232 285.358 363.51 285.358C362.97 285.358 362.494 285.511 362.081 285.818C361.668 286.124 361.347 286.519 361.117 287.004C360.887 287.488 360.771 288 360.771 288.54V294.167H359.129ZM374.491 294.482C373.498 294.482 372.621 294.248 371.86 293.78C371.106 293.304 370.51 292.667 370.074 291.868C369.645 291.061 369.431 290.162 369.431 289.17C369.431 288.169 369.645 287.27 370.074 286.471C370.51 285.664 371.106 285.027 371.86 284.559C372.621 284.083 373.498 283.845 374.491 283.845C375.483 283.845 376.356 284.087 377.11 284.571C377.872 285.047 378.467 285.689 378.895 286.495C379.332 287.294 379.55 288.185 379.55 289.17C379.55 290.162 379.332 291.061 378.895 291.868C378.467 292.667 377.872 293.304 377.11 293.78C376.356 294.248 375.483 294.482 374.491 294.482ZM374.491 292.969C375.086 292.969 375.641 292.82 376.157 292.521C376.681 292.223 377.102 291.791 377.419 291.227C377.745 290.654 377.907 289.968 377.907 289.17C377.907 288.371 377.745 287.689 377.419 287.125C377.102 286.552 376.681 286.116 376.157 285.818C375.641 285.511 375.086 285.358 374.491 285.358C373.895 285.358 373.336 285.511 372.812 285.818C372.288 286.116 371.864 286.552 371.538 287.125C371.221 287.689 371.062 288.371 371.062 289.17C371.062 289.968 371.221 290.654 371.538 291.227C371.864 291.791 372.288 292.223 372.812 292.521C373.336 292.82 373.895 292.969 374.491 292.969ZM381.36 294.167V280.118H383.003V294.167H381.36ZM389.871 294.482C388.879 294.482 388.002 294.248 387.24 293.78C386.486 293.304 385.891 292.667 385.454 291.868C385.026 291.061 384.811 290.162 384.811 289.17C384.811 288.169 385.026 287.27 385.454 286.471C385.891 285.664 386.486 285.027 387.24 284.559C388.002 284.083 388.879 283.845 389.871 283.845C390.863 283.845 391.736 284.087 392.49 284.571C393.252 285.047 393.847 285.689 394.276 286.495C394.712 287.294 394.931 288.185 394.931 289.17C394.931 290.162 394.712 291.061 394.276 291.868C393.847 292.667 393.252 293.304 392.49 293.78C391.736 294.248 390.863 294.482 389.871 294.482ZM389.871 292.969C390.466 292.969 391.022 292.82 391.538 292.521C392.062 292.223 392.482 291.791 392.8 291.227C393.125 290.654 393.288 289.968 393.288 289.17C393.288 288.371 393.125 287.689 392.8 287.125C392.482 286.552 392.062 286.116 391.538 285.818C391.022 285.511 390.466 285.358 389.871 285.358C389.276 285.358 388.716 285.511 388.192 285.818C387.669 286.116 387.244 286.552 386.919 287.125C386.601 287.689 386.442 288.371 386.442 289.17C386.442 289.968 386.601 290.654 386.919 291.227C387.244 291.791 387.669 292.223 388.192 292.521C388.716 292.82 389.276 292.969 389.871 292.969ZM401.158 298.717C400.325 298.717 399.607 298.576 399.004 298.293C398.408 298.011 397.928 297.652 397.563 297.216C397.198 296.789 396.936 296.353 396.777 295.909L398.289 295.268C398.496 295.817 398.845 296.277 399.337 296.648C399.829 297.019 400.436 297.204 401.158 297.204C402.19 297.204 402.98 296.902 403.527 296.297C404.083 295.692 404.361 294.845 404.361 293.756V292.642H404.289C403.98 293.126 403.535 293.534 402.956 293.865C402.377 294.195 401.702 294.361 400.932 294.361C400.083 294.361 399.305 294.139 398.599 293.695C397.9 293.251 397.345 292.634 396.932 291.844C396.519 291.053 396.313 290.142 396.313 289.109C396.313 288.076 396.519 287.165 396.932 286.374C397.345 285.584 397.9 284.967 398.599 284.523C399.305 284.071 400.083 283.845 400.932 283.845C401.702 283.845 402.377 284.015 402.956 284.354C403.535 284.684 403.98 285.1 404.289 285.6H404.361V284.16H405.932V293.78C405.932 294.885 405.722 295.805 405.301 296.539C404.881 297.273 404.313 297.817 403.599 298.172C402.885 298.535 402.071 298.717 401.158 298.717ZM401.158 292.848C401.738 292.848 402.269 292.703 402.754 292.412C403.246 292.114 403.635 291.686 403.92 291.13C404.214 290.565 404.361 289.892 404.361 289.109C404.361 288.294 404.214 287.609 403.92 287.052C403.635 286.495 403.246 286.076 402.754 285.793C402.269 285.503 401.738 285.358 401.158 285.358C400.579 285.358 400.043 285.507 399.551 285.806C399.067 286.096 398.678 286.519 398.384 287.076C398.091 287.633 397.944 288.31 397.944 289.109C397.944 289.908 398.091 290.585 398.384 291.142C398.678 291.69 399.067 292.114 399.551 292.412C400.043 292.703 400.579 292.848 401.158 292.848ZM411.179 297.894C411.139 297.983 411.092 298.084 411.036 298.196C410.989 298.309 410.957 298.378 410.941 298.402H409.251C409.322 298.233 409.401 298.047 409.489 297.846C409.584 297.644 409.695 297.398 409.822 297.107C409.901 296.938 409.973 296.781 410.036 296.636C410.1 296.49 410.171 296.329 410.251 296.152C410.338 295.982 410.441 295.764 410.56 295.498L411.905 292.521L412.274 291.602L415.251 284.16H417.025L411.929 296.103C411.882 296.224 411.802 296.41 411.691 296.66C411.58 296.918 411.477 297.168 411.382 297.41C411.286 297.652 411.219 297.813 411.179 297.894ZM411.548 293.756L407.37 284.16H409.155L412.239 291.602H412.393L411.548 293.756Z" fill="#676C72"/>
</svg>
