<?xml version="1.0" encoding="UTF-8"?>
<svg version="1.1" xmlns="http://www.w3.org/2000/svg" width="750" height="700">
<path d="M0 0 C247.5 0 495 0 750 0 C750 231 750 462 750 700 C502.5 700 255 700 0 700 C0 469 0 238 0 0 Z " fill="#FEFEFE" transform="translate(0,0)"/>
<path d="M0 0 C3.29120504 2.6869353 6.52917823 5.43235029 9.75390625 8.19848633 C11.12347296 9.36281349 12.49326503 10.52687562 13.86328125 11.69067383 C17.17384015 14.51100595 20.46824393 17.34920103 23.75390625 20.19848633 C20.62705164 22.6846189 17.37526314 24.5728313 13.8515625 26.44848633 C12.71396484 27.05692383 11.57636719 27.66536133 10.40429688 28.29223633 C9.20843719 28.92784842 8.0124727 29.56326339 6.81640625 30.19848633 C4.4730293 31.44675887 2.13092598 32.69737194 -0.2109375 33.94848633 C-1.24855225 34.50020508 -2.28616699 35.05192383 -3.35522461 35.62036133 C-5.26406924 36.66239931 -7.14076093 37.76590062 -8.97729492 38.93066406 C-11.24609375 40.19848633 -11.24609375 40.19848633 -13.58203125 39.73364258 C-16.4722217 38.06818092 -19.09724411 36.20970836 -21.76513672 34.21191406 C-28.56384496 29.12431127 -35.43984225 24.76996929 -43.12109375 21.13598633 C-43.8682666 20.77883545 -44.61543945 20.42168457 -45.38525391 20.05371094 C-55.07524111 15.63768455 -64.35265826 13.63201342 -74.99609375 13.69848633 C-76.041604 13.70275635 -77.08711426 13.70702637 -78.16430664 13.71142578 C-87.03717979 13.90519251 -94.18463576 15.47070385 -102.24609375 19.19848633 C-103.12394531 19.59422852 -104.00179687 19.9899707 -104.90625 20.39770508 C-115.43715973 25.68953117 -121.30586724 34.32530996 -125.24609375 45.19848633 C-128.09974601 60.41190633 -119.60595724 77.77090403 -111.24609375 90.19848633 C-107.72773909 94.71104847 -103.59643606 98.50462639 -99.24609375 102.19848633 C-98.70855469 102.65916504 -98.17101562 103.11984375 -97.6171875 103.59448242 C-88.99181666 110.88679506 -79.65708636 117.00881732 -70.109375 123.0144043 C-67.45838081 124.69906387 -64.85131971 126.44402947 -62.24609375 128.19848633 C-65.37156224 129.76122057 -67.74798526 128.57194031 -71.10546875 127.79223633 C-71.79783127 127.63239258 -72.49019379 127.47254883 -73.20353699 127.30786133 C-75.4699683 126.78048545 -77.73320713 126.24085928 -79.99609375 125.69848633 C-80.7669632 125.51519775 -81.53783264 125.33190918 -82.33206177 125.14306641 C-147.16018243 109.67290151 -147.16018243 109.67290151 -164.05859375 85.07348633 C-175.40939836 65.51890113 -174.0896879 43.68360349 -169.24609375 22.19848633 C-168.61770128 19.85125563 -167.94250624 17.52692633 -167.24609375 15.19848633 C-166.12074219 15.11211914 -164.99539063 15.02575195 -163.8359375 14.93676758 C-149.742115 13.7078616 -133.2633993 11.58812346 -123.51171875 0.16723633 C-119.37481369 -5.64900642 -116.12564696 -12.43584808 -114.7109375 -19.45776367 C-112.94754475 -22.27919206 -112.27257698 -22.33910098 -109.140625 -23.12963867 C-107.45083581 -23.45935364 -105.75637449 -23.76578649 -104.05859375 -24.05151367 C-103.22005859 -24.21135742 -102.38152344 -24.37120117 -101.51757812 -24.53588867 C-99.09808047 -24.98919034 -96.67477511 -25.40076953 -94.24609375 -25.80151367 C-92.60253906 -26.09348633 -92.60253906 -26.09348633 -90.92578125 -26.39135742 C-56.4591813 -30.23317589 -26.97380809 -21.46493643 0 0 Z " fill="#B9B153" transform="translate(456.24609375,157.801513671875)"/>
<path d="M0 0 C53.43356643 11.46932613 53.43356643 11.46932613 74 22 C74.96421875 22.48339844 75.9284375 22.96679688 76.921875 23.46484375 C91.59773433 31.10683128 103.79806377 41.91785847 108.96484375 58.00390625 C113.80308945 76.88867171 110.94220328 96.47574941 106 115 C104.98800537 115.10489746 104.98800537 115.10489746 103.95556641 115.21191406 C100.84359266 115.54307705 97.73450097 115.89639907 94.625 116.25 C93.56410156 116.35957031 92.50320313 116.46914063 91.41015625 116.58203125 C79.10573506 118.01628893 68.83507628 121.9559554 60.671875 131.58203125 C57.09884052 136.74957411 55.00224501 142.79372298 53.13671875 148.76171875 C52 151 52 151 50.1015625 152.0390625 C47.07399837 152.75536316 44.05682224 153.41633491 41 154 C40.3002002 154.13680176 39.60040039 154.27360352 38.87939453 154.41455078 C6.71164773 160.52043382 -22.39636396 155.99785628 -50 138 C-62.33368159 129.40702184 -74.48244611 119.74786529 -85 109 C-81.10980924 106.7521911 -77.20814266 104.52569801 -73.29931641 102.31054688 C-71.68098407 101.38814212 -70.06639978 100.45914585 -68.45458984 99.52539062 C-65.78976917 97.98252252 -63.11458341 96.45897084 -60.4375 94.9375 C-59.58124023 94.43629639 -58.72498047 93.93509277 -57.84277344 93.41870117 C-57.02711914 92.95955322 -56.21146484 92.50040527 -55.37109375 92.02734375 C-54.64849365 91.61218506 -53.92589355 91.19702637 -53.18139648 90.76928711 C-50.33873699 89.76680025 -48.85379234 90.08180642 -46 91 C-43.77441406 92.27172852 -43.77441406 92.27172852 -41.515625 93.87890625 C-40.67136963 94.46696045 -39.82711426 95.05501465 -38.95727539 95.66088867 C-38.06387451 96.28842041 -37.17047363 96.91595215 -36.25 97.5625 C-17.69264195 110.22393866 1.63512618 119.53359038 24.7890625 115.30859375 C37.67358162 112.120809 50.3786454 108.52407724 58 97 C63.57022696 87.34307387 65.53580287 78.97247988 63.38671875 67.81640625 C59.92720035 55.60903074 54.30176704 42.82879583 45 34 C43.64841797 32.65421875 43.64841797 32.65421875 42.26953125 31.28125 C30.99675804 20.28908196 18.07649122 11.52708052 4.46923828 3.67700195 C2.96589998 2.80776245 1.48064603 1.90735368 0 1 C0 0.67 0 0.34 0 0 Z " fill="#766080" transform="translate(352,210)"/>
<path d="M0 0 C0.79148437 0.43570312 1.58296875 0.87140625 2.3984375 1.3203125 C11.8883163 7.08990659 18.29501171 15.1441399 21 26 C22.53500682 38.0445391 21.27113611 49.19030685 14.1875 59.3125 C9.11446417 65.52982963 3.43144548 69.94407849 -4 73 C-4.84046875 73.35835938 -5.6809375 73.71671875 -6.546875 74.0859375 C-17.89191342 77.0890359 -33.69597668 76.86984044 -44 71 C-44.80308594 70.55269531 -45.60617188 70.10539062 -46.43359375 69.64453125 C-55.53021901 64.07303499 -61.15496466 56.28301429 -64.6171875 46.203125 C-66.58850342 34.85800075 -65.63302469 23.37765197 -59.45703125 13.54296875 C-55.68946553 8.34424534 -51.49531791 4.3125087 -46 1 C-45.21882813 0.51273437 -44.43765625 0.02546875 -43.6328125 -0.4765625 C-31.50056172 -6.77126653 -11.95877015 -6.80339927 0 0 Z " fill="#4524A3" transform="translate(187,436)"/>
<path d="M0 0 C1.36644653 0.00749268 1.36644653 0.00749268 2.76049805 0.01513672 C16.86280897 0.37600058 27.38321659 5.74814564 37.0625 15.8125 C42.60887357 22.33956831 44.48994137 29.06178639 44.2265625 37.59765625 C42.97371654 45.22769353 38.71651115 52.70014163 33 57.90625 C23.60032379 64.56435398 13.06741973 68.90318878 1.5 68.8125 C0.75419678 68.80758545 0.00839355 68.8026709 -0.76000977 68.79760742 C-12.85317489 68.54280816 -24.70276291 64.43971163 -33.71875 56.16796875 C-40.74748193 48.51167147 -42.79760671 40.28070403 -42.625 30.04296875 C-41.80493328 22.29504676 -37.92991684 16.29931762 -32.2578125 11.09375 C-22.53186675 3.37354404 -12.37587366 -0.09015767 0 0 Z " fill="#553797" transform="translate(456.25,331.5)"/>
<path d="M0 0 C7.64098602 7.21586527 11.36132209 13.01734144 11.91796875 23.58203125 C11.59439658 33.25788306 7.95038675 40.66368973 0.91796875 47.26953125 C-8.60378745 54.96018048 -19.29504427 58.35237423 -31.45703125 58.26953125 C-32.42278076 58.26453613 -33.38853027 58.25954102 -34.38354492 58.25439453 C-42.40792354 58.05938324 -48.59866777 56.66933008 -55.70703125 52.76953125 C-56.96193359 52.10050781 -56.96193359 52.10050781 -58.2421875 51.41796875 C-65.55202498 47.04915103 -70.90549425 40.9472246 -73.64453125 32.83203125 C-75.92422739 23.46796291 -75.15916893 17.05745458 -70.46484375 8.53125 C-64.67408282 -0.56667885 -55.19406641 -6.66697127 -44.70703125 -9.23046875 C-29.01597857 -11.98328501 -12.65929101 -10.43067124 0 0 Z " fill="#DCDC3B" transform="translate(323.70703125,104.23046875)"/>
<path d="M0 0 C7.38320956 -0.04962091 14.76632095 -0.08582429 22.1496582 -0.10986328 C24.65879 -0.11989011 27.1679102 -0.13351495 29.67700195 -0.15087891 C33.29381176 -0.17527318 36.91046638 -0.18651661 40.52734375 -0.1953125 C41.64020248 -0.20563507 42.75306122 -0.21595764 43.89964294 -0.22659302 C52.82862449 -0.22786499 60.86552622 0.13387711 68 6 C73.48465867 11.63915609 75.31110853 15.50230477 75.21875 23.43359375 C74.73079711 29.15832673 72.10495796 34.00306725 68 38 C65.07703304 39.5474531 62.08744752 40.8191173 59 42 C60.7977828 47.05433793 63.39607479 51.61593688 66.0625 56.25 C66.50271484 57.07757813 66.94292969 57.90515625 67.39648438 58.7578125 C69.96503556 63.31833619 69.96503556 63.31833619 74.37841797 65.76757812 C77.13699065 66.12825143 77.13699065 66.12825143 81 66 C81 69.63 81 73.26 81 77 C73.41 77 65.82 77 58 77 C57.03578125 75.26492188 56.0715625 73.52984375 55.078125 71.7421875 C54.13168956 70.04417097 53.18523572 68.34616463 52.23828125 66.6484375 C51.26649984 64.90460841 50.29728984 63.15934715 49.328125 61.4140625 C48.709375 60.30546875 48.090625 59.196875 47.453125 58.0546875 C46.88754883 57.03874512 46.32197266 56.02280273 45.73925781 54.97607422 C44.49819689 52.85247335 43.16876296 50.77952129 41.78417969 48.74658203 C40 46 40 46 40 44 C37.69 44 35.38 44 33 44 C33 40.37 33 36.74 33 33 C33.85722656 32.96261719 34.71445312 32.92523438 35.59765625 32.88671875 C44.73426275 32.46399293 44.73426275 32.46399293 53 29 C55.20497203 25.45287108 55.51436424 22.1149139 55 18 C53.20006226 15.30009338 51.916227 13.4581135 49 12 C38.11 11.505 38.11 11.505 27 11 C27 29.15 27 47.3 27 66 C29.97 66 32.94 66 36 66 C36 69.63 36 73.26 36 77 C24.12 77 12.24 77 0 77 C0 73.37 0 69.74 0 66 C2.97 66 5.94 66 9 66 C9 47.85 9 29.7 9 11 C6.03 11 3.06 11 0 11 C0 7.37 0 3.74 0 0 Z " fill="#4422A2" transform="translate(312,433)"/>
<path d="M0 0 C11.88 0 23.76 0 36 0 C36 3.63 36 7.26 36 11 C33.03 11 30.06 11 27 11 C27.04425884 17.1386247 27.11420501 23.27623126 27.20751953 29.41430664 C27.23566962 31.50048704 27.2569137 33.58677292 27.27099609 35.6730957 C27.29250802 38.67974615 27.33920124 41.68513641 27.390625 44.69140625 C27.39185364 45.61772354 27.39308228 46.54404083 27.39434814 47.49842834 C27.52870021 53.49689148 28.5148073 57.07775601 32 62 C35.85011947 65.18138034 39.02220534 65.40702146 43.9375 65.375 C45.71447266 65.38660156 45.71447266 65.38660156 47.52734375 65.3984375 C51.50493107 64.9420664 53.71728713 64.3102263 57 62 C61.07559159 56.2729433 61.60002108 50.65895778 61.609375 43.8125 C61.62591125 42.86938965 61.64244751 41.9262793 61.65948486 40.95458984 C61.70771079 37.96965864 61.72927923 34.98523594 61.75 32 C61.77818093 29.96481852 61.80811131 27.92966046 61.83984375 25.89453125 C61.91346291 20.92972941 61.96319249 15.96520567 62 11 C59.36 11 56.72 11 54 11 C54 7.37 54 3.74 54 0 C64.23 0 74.46 0 85 0 C85 3.63 85 7.26 85 11 C82.03 11 79.06 11 76 11 C76.0314209 13.01951782 76.0314209 13.01951782 76.06347656 15.07983398 C76.1362341 20.10609169 76.18192949 25.13230343 76.21972656 30.15893555 C76.23976081 32.32861171 76.26699612 34.49823443 76.30175781 36.66772461 C76.350637 39.798149 76.37305125 42.92785548 76.390625 46.05859375 C76.41127014 47.01833603 76.43191528 47.97807831 76.45318604 48.96690369 C76.45575143 56.78114896 74.41644452 63.01062332 69.75 69.3125 C66.45339078 72.53418629 63.21485274 74.24381136 59 76 C57.97132813 76.53947266 57.97132813 76.53947266 56.921875 77.08984375 C52.40115415 78.49803621 47.9564203 78.32818807 43.25 78.3125 C42.29867187 78.32861328 41.34734375 78.34472656 40.3671875 78.36132812 C30.30976803 78.36821677 22.42247312 75.93437398 15 69 C11.16435749 64.05403992 8.7388957 59.43484759 8.77294922 53.11791992 C8.77310028 52.17732224 8.77325134 51.23672455 8.77340698 50.2676239 C8.78372955 49.2653627 8.79405212 48.2631015 8.8046875 47.23046875 C8.8075174 46.19432938 8.81034729 45.15819 8.81326294 44.09065247 C8.82443546 40.78948293 8.84953495 37.48858719 8.875 34.1875 C8.88503357 31.94596747 8.89415876 29.70443067 8.90234375 27.46289062 C8.92436526 21.97515533 8.95887524 16.48762405 9 11 C6.03 11 3.06 11 0 11 C0 7.37 0 3.74 0 0 Z " fill="#4422A2" transform="translate(218,433)"/>
<path d="M0 0 C2.26670876 1.52018791 4.03335478 3.0851086 6 5 C6.33 3.02 6.66 1.04 7 -1 C10.96 -1 14.92 -1 19 -1 C19 6.26 19 13.52 19 21 C15.37 21 11.74 21 8 21 C4.625 17.1875 4.625 17.1875 3.265625 14.9765625 C1.23561332 11.80623562 -1.39290571 10.60958749 -4.8125 9.3125 C-9.66273774 8.61960889 -13.50157735 8.29861068 -17.9375 10.375 C-20.09702406 11.83921726 -20.09702406 11.83921726 -21 14 C-21.15130101 17.47992317 -21.2781936 20.73051531 -20 24 C-18.27114836 25.01512337 -18.27114836 25.01512337 -16 25.5 C-14.65808594 25.85771484 -14.65808594 25.85771484 -13.2890625 26.22265625 C-10.80741677 26.80917347 -8.32456469 27.37824763 -5.8359375 27.93359375 C14.83740316 32.55984369 14.83740316 32.55984369 21 42 C24.19595558 48.57734204 23.91375384 55.90338976 21.875 62.8125 C18.02696926 69.35415226 14.39635068 73.79195888 7.03125 76.33203125 C-3.54167701 78.66189017 -12.25519545 77.85878622 -21.7421875 72.5078125 C-24 71 -24 71 -26 69 C-26.33 71.31 -26.66 73.62 -27 76 C-31.29 76 -35.58 76 -40 76 C-40 67.42 -40 58.84 -40 50 C-36.04 50 -32.08 50 -28 50 C-24.625 54.75 -24.625 54.75 -23.30078125 57.51171875 C-20.99164415 61.92889693 -17.65893246 63.44702251 -13 65 C-11.04524991 65.1447963 -9.0848862 65.22067502 -7.125 65.25 C-6.09632812 65.27578125 -5.06765625 65.3015625 -4.0078125 65.328125 C-0.53206677 64.94895274 1.28026555 64.18550089 4 62 C4.99261745 59.93617558 4.99261745 59.93617558 5.125 57.625 C5.23070312 56.87476563 5.33640625 56.12453125 5.4453125 55.3515625 C4.92231585 52.58977319 3.91958055 51.02892026 1.84130859 49.13818359 C-2.23457482 46.61872344 -7.1156089 45.9673729 -11.75 45 C-22.41881207 42.74010385 -31.50654058 40.24826038 -38 31 C-41.43957932 25.45307279 -40.74250742 18.06541191 -39.60546875 11.83984375 C-37.53792661 5.98403085 -32.29964545 1.9057136 -27.0859375 -1.10546875 C-18.50279903 -4.86721462 -8.39735155 -3.75169633 0 0 Z " fill="#4624A3" transform="translate(88,434)"/>
<path d="M0 0 C0.92039062 -0.01546875 1.84078125 -0.0309375 2.7890625 -0.046875 C12.37796877 0.00714701 20.04155624 2.90779012 27 9.5 C27 6.86 27 4.22 27 1.5 C30.96 1.5 34.92 1.5 39 1.5 C39 10.08 39 18.66 39 27.5 C35.37 27.5 31.74 27.5 28 27.5 C24.6875 23.75 24.6875 23.75 23.32421875 21.5390625 C20.30969499 16.89722945 15.23586782 14.68547951 10 13.5 C1.35997189 12.74349984 -4.92502535 13.8632517 -12.1875 18.5625 C-17.76597467 23.75888737 -20.20113029 29.88461982 -20.54248047 37.46044922 C-20.60946219 44.49353047 -19.85360373 50.47874417 -16 56.5 C-15.13375 57.8921875 -15.13375 57.8921875 -14.25 59.3125 C-8.83917286 64.57302639 -4.04927649 65.78216018 3.5 66 C11.10795831 65.78046687 15.92775978 64.57224022 21.3125 59.1875 C23.2880527 56.0412494 24.64424168 52.95718372 26 49.5 C31.54050113 50.06825653 36.03715966 52.12886517 41 54.5 C37.90094766 64.14149617 33.60832443 70.07870425 24.7578125 75.17578125 C17.06937248 78.86753928 11.1905631 80.02502438 2.6875 79.9375 C1.1550061 79.92614014 1.1550061 79.92614014 -0.40844727 79.91455078 C-12.61485942 79.64705043 -21.21050539 76.20601722 -29.90625 67.6171875 C-39.09785054 57.68558523 -40.4914535 48.123665 -40.27734375 35.03125 C-39.8512816 24.78880065 -35.3627289 16.52305509 -27.96484375 9.59375 C-19.44495027 2.5013519 -11.01134546 -0.18506463 0 0 Z " fill="#4624A3" transform="translate(443,431.5)"/>
<path d="M0 0 C23.43 0 46.86 0 71 0 C71 8.58 71 17.16 71 26 C66.71 26 62.42 26 58 26 C58 21.05 58 16.1 58 11 C47.77 11 37.54 11 27 11 C27 17.93 27 24.86 27 32 C32.28 32 37.56 32 43 32 C43 29.36 43 26.72 43 24 C46.3 24 49.6 24 53 24 C53 32.91 53 41.82 53 51 C49.7 51 46.4 51 43 51 C43 48.36 43 45.72 43 43 C37.72 43 32.44 43 27 43 C27 50.59 27 58.18 27 66 C30.3 66 33.6 66 37 66 C37 69.63 37 73.26 37 77 C24.79 77 12.58 77 0 77 C0 73.37 0 69.74 0 66 C2.97 66 5.94 66 9 66 C9 47.85 9 29.7 9 11 C6.03 11 3.06 11 0 11 C0 7.37 0 3.74 0 0 Z " fill="#4524A3" transform="translate(547,433)"/>
<path d="M0 0 C12.21 0 24.42 0 37 0 C37 3.63 37 7.26 37 11 C34.36 11 31.72 11 29 11 C29.6815918 11.98395752 29.6815918 11.98395752 30.37695312 12.98779297 C32.42278225 15.94690119 34.4614663 18.91086181 36.5 21.875 C37.57314453 23.42380859 37.57314453 23.42380859 38.66796875 25.00390625 C39.34472656 25.99003906 40.02148438 26.97617187 40.71875 27.9921875 C41.66137695 29.35899658 41.66137695 29.35899658 42.62304688 30.75341797 C44 33 44 33 44 35 C44.66 35 45.32 35 46 35 C46.21527344 34.35417969 46.43054688 33.70835937 46.65234375 33.04296875 C48.51679441 28.83309319 51.02447306 25.14391327 53.5625 21.3125 C54.56462551 19.78830148 55.56596593 18.26358641 56.56640625 16.73828125 C57.00927979 16.06837158 57.45215332 15.39846191 57.90844727 14.70825195 C59.04956807 12.98815958 59.04956807 12.98815958 60 11 C57.36 11 54.72 11 52 11 C52 7.37 52 3.74 52 0 C62.89 0 73.78 0 85 0 C85 3.63 85 7.26 85 11 C82.03 11 79.06 11 76 11 C75.34 12.32 74.68 13.64 74 15 C72.54347148 17.26887809 71.06590035 19.51276598 69.5625 21.75 C69.12945557 22.4097583 68.69641113 23.0695166 68.25024414 23.74926758 C65.94207641 27.23851167 63.56759781 30.59132152 60.9296875 33.83984375 C52.67325663 44.28947225 51.41886284 52.80953806 52 66 C55.3 66 58.6 66 62 66 C62 69.63 62 73.26 62 77 C49.46 77 36.92 77 24 77 C24 73.37 24 69.74 24 66 C27.3 66 30.6 66 34 66 C34.45164203 52.67656006 33.74412508 44.80014222 24.57226562 34.84472656 C21.37233446 31.09027316 18.73381381 26.91131057 16 22.8125 C14.89804206 21.17169156 13.79402542 19.53226296 12.6875 17.89453125 C12.21699219 17.19175049 11.74648438 16.48896973 11.26171875 15.76489258 C9.22347035 12.87256652 9.22347035 12.87256652 6.0546875 11.5859375 C4.03645833 11.390625 2.01822917 11.1953125 0 11 C0 7.37 0 3.74 0 0 Z " fill="#4422A2" transform="translate(622,433)"/>
<path d="M0 0 C5.97388606 4.06513145 9.02886605 8.81517312 10.78515625 15.80859375 C12.5003306 25.63569925 11.38084382 33.86605862 6.26171875 42.5390625 C2.02321355 47.52099571 -2.65733671 50.17659844 -9.19140625 50.9453125 C-16.35203235 51.12211808 -22.07581056 51.0958082 -27.93359375 46.46484375 C-30.98223027 43.21164504 -32.92628554 39.58369577 -34.73828125 35.5390625 C-35.06828125 34.8790625 -35.39828125 34.2190625 -35.73828125 33.5390625 C-35.89059316 30.65099433 -35.96979084 27.80318853 -35.98828125 24.9140625 C-36.01921875 23.74037109 -36.01921875 23.74037109 -36.05078125 22.54296875 C-36.10390617 14.53438666 -34.02824699 8.0029542 -28.52734375 2.08203125 C-19.96230488 -5.30484725 -9.57687715 -5.38229516 0 0 Z " fill="#FCFCFD" transform="translate(177.73828125,447.4609375)"/>
<path d="M0 0 C11.88 0 23.76 0 36 0 C36 3.63 36 7.26 36 11 C33.03 11 30.06 11 27 11 C27 29.15 27 47.3 27 66 C29.97 66 32.94 66 36 66 C36 69.63 36 73.26 36 77 C24.12 77 12.24 77 0 77 C0 73.37 0 69.74 0 66 C2.97 66 5.94 66 9 66 C9 47.85 9 29.7 9 11 C6.03 11 3.06 11 0 11 C0 7.37 0 3.74 0 0 Z " fill="#4321A2" transform="translate(498,433)"/>
</svg>
